<?xml version="1.0" encoding="UTF-8" standalone="no"?>
<!-- Created with Inkscape (http://www.inkscape.org/) -->

<svg
   width="512"
   height="512"
   viewBox="0 0 512 512"
   version="1.1"
   id="svg1"
   xml:space="preserve"
   xmlns="http://www.w3.org/2000/svg"
   xmlns:svg="http://www.w3.org/2000/svg"><defs
     id="defs1"><clipPath
       clipPathUnits="userSpaceOnUse"
       id="clipPath14"><path
         d="m 792.65909,122.11927 c -41.18433,-1e-5 -82.36865,-11.26514 -113.72684,-33.79012 -62.70898,-45.05528 -62.709,-118.36609 1e-5,-163.42138 30.09568,-21.74279 71.0474,-33.9312 113.72682,-33.84838 42.96086,0 83.34906,12.0225 113.72686,33.84838 30.37783,21.82589 47.1035,50.8441 47.1035,81.71069 0.114,30.66316 -16.84689,60.08525 -47.10349,81.71068 -31.35083,22.52499 -72.53515,33.79012 -113.72686,33.79013 z"
         id="path14"
         style="fill:#ffffff;fill-opacity:1;stroke:#000000;stroke-width:3.18876;stroke-dasharray:none;stroke-opacity:1" /></clipPath></defs><g
     id="layer1"><g
       id="g10"
       transform="translate(59.762064,406.26712)"><g
         id="g7"
         transform="translate(17.912288,7.84771)"><rect
           width="204.33141"
           height="241.98996"
           x="49.426399"
           y="-289.63852"
           fill="#676e87"
           rx="20.43314"
           id="rect1"
           style="fill:#2f323e;fill-opacity:1;stroke:none;stroke-width:3.69628;stroke-dasharray:none;stroke-opacity:1"
           transform="matrix(0.89069209,0.45460709,-0.70050608,0.71364643,0,0)" /><path
           fill="#595f74"
           d="m 410.71398,-100.62846 -27.29945,-13.93357 a 21.869949,15.334964 5.0000003 0 1 6.14877,21.565965 L 244.14958,55.145379 a 21.869949,15.334964 5.0000003 0 1 -30.25049,2.987865 l 27.29945,13.933576 a 21.869949,15.334964 5.0000003 0 0 30.2505,-2.987865 L 416.86276,-79.06249 a 21.869949,15.334964 5.0000003 0 0 -6.14878,-21.56597 z"
           id="path1"
           style="fill:#1b1c22;fill-opacity:1;stroke:none;stroke-width:3.61044;stroke-dasharray:none;stroke-opacity:1" /><polygon
           fill="#eeeeee"
           points="299.99,7.5 322,17.5 344,7.5 344,127.5 168,127.5 168,7.5 188.17,17.5 211.99,7.5 233.99,17.5 255.99,7.5 277.99,17.5 "
           id="polygon1"
           style="stroke:none;stroke-width:5.91446;stroke-dasharray:none;stroke-opacity:1"
           transform="matrix(0.60665455,0.30963502,-0.40169536,0.40923051,215.75174,-250.81274)" /><path
           fill="#bebebe"
           d="m 358.37785,-118.74112 -52.17229,-26.62862 a 5.4675,3.83375 5.0000003 0 1 6.02543,-6.13845 l 52.17229,26.62861 a 5.4675013,3.8337509 5.0000003 0 1 -6.02543,6.13846 z"
           id="path2"
           style="stroke:none;stroke-width:3.61044;stroke-dasharray:none;stroke-opacity:1" /><path
           fill="#595f74"
           d="M 380.52516,-83.788379 253.1277,-148.81173 a 5.4675013,3.8337509 5.0000003 0 1 6.02543,-6.13846 l 127.39746,65.023353 a 5.4675001,3.8337501 5.0000003 0 1 -6.02543,6.138458 z"
           id="path3-0"
           style="stroke:none;stroke-width:3.61044;stroke-dasharray:none;stroke-opacity:1" /><path
           fill="#bebebe"
           d="m 370.42871,-131.01804 -52.17229,-26.62861 a 5.4675013,3.8337509 5.0000003 0 1 6.02543,-6.13846 l 52.17229,26.62861 a 5.4675013,3.8337509 5.0000003 0 1 -6.02543,6.13846 z"
           id="path4"
           style="stroke:none;stroke-width:3.61044;stroke-dasharray:none;stroke-opacity:1" /><rect
           width="143.03198"
           height="52.756107"
           x="80.076111"
           y="-246.63083"
           fill="#66c1ff"
           rx="2.7244186"
           id="rect4"
           style="fill:#ffffff;fill-opacity:1;stroke:none;stroke-width:3.69628;stroke-dasharray:none;stroke-opacity:1"
           transform="matrix(0.89069209,0.45460709,-0.70050608,0.71364643,0,0)" /><path
           fill="#4eb7ff"
           d="m 369.0604,-75.819233 -27.29946,-13.933575 a 2.9159125,2.0446053 5.0000003 0 1 0.81984,2.875462 l -33.74241,34.375363 a 2.916,2.0446667 5.0000003 0 1 -4.0334,0.398381 l 27.29945,13.933576 a 2.916,2.0446667 5.0000003 0 0 4.0334,-0.398382 l 33.74241,-34.375362 a 2.9159125,2.0446053 5.0000003 0 0 -0.81983,-2.875463 z"
           id="path5"
           style="fill:#f4f4f4;fill-opacity:1;stroke:none;stroke-width:3.61044;stroke-dasharray:none;stroke-opacity:1" /><rect
           width="32.906212"
           height="20.070257"
           x="80.416664"
           y="-93.523438"
           fill="#ffffff"
           rx="2.043314"
           id="rect5"
           style="stroke:none;stroke-width:3.69628;stroke-dasharray:none;stroke-opacity:1"
           transform="matrix(0.89069209,0.45460709,-0.70050608,0.71364643,0,0)" /><rect
           width="33.246761"
           height="20.070257"
           x="189.862"
           y="-93.523438"
           fill="#63ea86"
           rx="2.043314"
           id="rect6"
           style="stroke:none;stroke-width:3.69628;stroke-dasharray:none;stroke-opacity:1"
           transform="matrix(0.89069209,0.45460709,-0.70050608,0.71364643,0,0)" /><path
           fill="#3ce568"
           d="m 262.41439,33.754949 -9.09982,-4.644526 a 2.187051,1.5335358 5.0000003 0 1 0.61488,2.156597 l -11.64917,11.867685 a 2.187051,1.5335358 5.0000003 0 1 -3.02505,0.298786 l 9.09982,4.644526 a 2.187051,1.5335358 5.0000003 0 0 3.02505,-0.298787 l 11.64917,-11.867685 a 2.187051,1.5335358 5.0000003 0 0 -0.61488,-2.156596 z"
           id="path6"
           style="stroke:none;stroke-width:3.61044;stroke-dasharray:none;stroke-opacity:1" /><g
           id="g4"
           transform="translate(67.519641,-56.026936)"><rect
             width="33.246761"
             height="20.070257"
             x="125.88074"
             y="-9.6305199"
             fill="#ff6666"
             rx="2.043314"
             id="rect7-1"
             style="fill:#ffed66;fill-opacity:1;stroke:none;stroke-width:3.69628;stroke-dasharray:none;stroke-opacity:1"
             transform="matrix(0.89069209,0.45460709,-0.70050608,0.71364643,0,0)" /><path
             fill="#ff4e4e"
             d="m 146.65943,64.538569 -9.09981,-4.644525 a 2.187051,1.5335358 5.0000003 0 1 0.61487,2.156596 l -11.64916,11.867685 a 2.187051,1.5335358 5.0000003 0 1 -3.02505,0.298787 l 9.09982,4.644525 a 2.187051,1.5335358 5.0000003 0 0 3.02505,-0.298786 l 11.64916,-11.867685 a 2.187051,1.5335358 5.0000003 0 0 -0.61488,-2.156597 z"
             id="path7-5"
             style="fill:#ffdf4e;fill-opacity:1;stroke:none;stroke-width:3.61044;stroke-dasharray:none;stroke-opacity:1" /></g><rect
           width="32.906212"
           height="20.070257"
           x="80.416664"
           y="-130.79677"
           fill="#ffffff"
           rx="2.043314"
           id="rect8"
           style="stroke:none;stroke-width:3.69628;stroke-dasharray:none;stroke-opacity:1"
           transform="matrix(0.89069209,0.45460709,-0.70050608,0.71364643,0,0)" /><rect
           width="33.246761"
           height="20.070257"
           x="189.862"
           y="-130.79677"
           fill="#ffffff"
           rx="2.043314"
           id="rect9"
           style="stroke:none;stroke-width:3.69628;stroke-dasharray:none;stroke-opacity:1"
           transform="matrix(0.89069209,0.45460709,-0.70050608,0.71364643,0,0)" /><path
           fill="#eeeeee"
           d="m 288.52459,7.1549655 -9.09982,-4.6445253 a 2.187051,1.5335358 5.0000003 0 1 0.61488,2.1565966 L 268.39048,16.534722 a 2.187051,1.5335358 5.0000003 0 1 -3.02505,0.298786 l 9.09982,4.644525 a 2.187051,1.5335358 5.0000003 0 0 3.02505,-0.298786 L 289.13946,9.3115621 a 2.187051,1.5335358 5.0000003 0 0 -0.61487,-2.1565966 z"
           id="path9"
           style="stroke:none;stroke-width:3.61044;stroke-dasharray:none;stroke-opacity:1" /><rect
           width="33.246761"
           height="20.070257"
           x="134.96906"
           y="-130.79677"
           fill="#ffffff"
           rx="2.043314"
           id="rect10"
           style="stroke:none;stroke-width:3.69628;stroke-dasharray:none;stroke-opacity:1"
           transform="matrix(0.89069209,0.45460709,-0.70050608,0.71364643,0,0)" /><rect
           width="32.906212"
           height="20.070257"
           x="80.416664"
           y="-168.07011"
           fill="#ffffff"
           rx="2.043314"
           id="rect11"
           style="stroke:none;stroke-width:3.69628;stroke-dasharray:none;stroke-opacity:1"
           transform="matrix(0.89069209,0.45460709,-0.70050608,0.71364643,0,0)" /><rect
           width="33.246761"
           height="20.070257"
           x="189.862"
           y="-168.07011"
           fill="#ffffff"
           rx="2.043314"
           id="rect12"
           style="stroke:none;stroke-width:3.69628;stroke-dasharray:none;stroke-opacity:1"
           transform="matrix(0.89069209,0.45460709,-0.70050608,0.71364643,0,0)" /><rect
           width="33.246761"
           height="20.070257"
           x="134.96906"
           y="-168.07011"
           fill="#ffffff"
           rx="2.043314"
           id="rect13"
           style="stroke:none;stroke-width:3.69628;stroke-dasharray:none;stroke-opacity:1"
           transform="matrix(0.89069209,0.45460709,-0.70050608,0.71364643,0,0)" /><path
           fill="#eeeeee"
           d="m 314.63479,-19.445018 -9.09982,-4.644525 a 2.187051,1.5335358 5.0000003 0 1 0.61487,2.156597 l -11.64916,11.867684 a 2.187051,1.5335358 5.0000003 0 1 -3.02505,0.2987869 l 9.09982,4.6445253 a 2.187051,1.5335358 5.0000003 0 0 3.02505,-0.2987865 l 11.64916,-11.8676847 a 2.187051,1.5335358 5.0000003 0 0 -0.61487,-2.156597 z m -75.00277,1.645336 -9.09982,-4.644525 a 2.187051,1.5335358 5.0000003 0 1 0.61488,2.156596 l -11.64916,11.8676852 a 2.187051,1.5335358 5.0000003 0 1 -3.02505,0.2987865 l 9.09981,4.6445253 a 2.187051,1.5335358 5.0000003 0 0 3.02505,-0.2987865 L 240.2469,-15.643085 a 2.187051,1.5335358 5.0000003 0 0 -0.61488,-2.156597 z m 26.1102,-26.599983 -9.09982,-4.644525 a 2.187051,1.5335358 5.0000003 0 1 0.61488,2.156596 l -11.64917,11.867685 a 2.187051,1.5335358 5.0000003 0 1 -3.02505,0.298787 l 9.09982,4.644525 a 2.187051,1.5335358 5.0000003 0 0 3.02505,-0.298787 l 11.64917,-11.867684 a 2.187051,1.5335358 5.0000003 0 0 -0.61488,-2.156597 z m -75.00276,1.645336 -9.09982,-4.644526 a 2.187051,1.5335358 5.0000003 0 1 0.61488,2.156597 l -11.64917,11.867685 a 2.187051,1.5335358 5.0000003 0 1 -3.02505,0.298786 l 9.09982,4.644526 a 2.187051,1.5335358 5.0000003 0 0 3.02505,-0.298787 l 11.64916,-11.867685 a 2.187051,1.5335358 5.0000003 0 0 -0.61487,-2.156596 z m -26.1102,26.599983 -9.09982,-4.644525 a 2.187051,1.5335358 5.0000003 0 1 0.61488,2.156596 l -11.64917,11.8676849 a 2.187051,1.5335358 5.0000003 0 1 -3.02505,0.2987865 l 9.09982,4.6445253 a 2.187051,1.5335358 5.0000003 0 0 3.02505,-0.2987865 L 165.24414,-13.99775 a 2.187051,1.5335358 5.0000003 0 0 -0.61488,-2.156596 z m 52.2204,-53.199966 -9.09982,-4.644526 a 2.187051,1.5335358 5.0000003 0 1 0.61487,2.156597 l -11.64916,11.867685 a 2.187051,1.5335358 5.0000003 0 1 -3.02505,0.298786 l 9.09982,4.644525 a 2.187051,1.5335358 5.0000003 0 0 3.02505,-0.298786 l 11.64916,-11.867685 a 2.187051,1.5335358 5.0000003 0 0 -0.61487,-2.156596 z"
           id="path13"
           style="stroke:none;stroke-width:3.61044;stroke-dasharray:none;stroke-opacity:1" /><g
           id="g5"
           transform="translate(56.216988,-38.194877)"><rect
             width="33.246761"
             height="20.070257"
             x="66.400841"
             y="-31.054916"
             fill="#ff6666"
             rx="2.043314"
             id="rect7"
             style="stroke:none;stroke-width:3.69628;stroke-dasharray:none;stroke-opacity:1"
             transform="matrix(0.89069209,0.45460709,-0.70050608,0.71364643,0,0)" /><path
             fill="#ff4e4e"
             d="m 108.68907,22.209141 -9.099806,-4.644525 a 2.187051,1.5335358 5.0000003 0 1 0.614866,2.156596 L 88.554974,31.588897 a 2.187051,1.5335358 5.0000003 0 1 -3.02505,0.298787 l 9.09982,4.644525 a 2.187051,1.5335358 5.0000003 0 0 3.02505,-0.298786 L 109.30395,24.365738 a 2.187051,1.5335358 5.0000003 0 0 -0.61488,-2.156597 z"
             id="path7"
             style="stroke:none;stroke-width:3.61044;stroke-dasharray:none;stroke-opacity:1" /></g><g
           id="layer1-7-9"
           transform="matrix(3.8631802,1.8014306,-1.8014305,3.8631802,42.362588,-422.33166)"
           style="stroke-width:16.3907;stroke-dasharray:none"><path
             d="m 77.59806,43.952577 c -0.313619,0.275167 -0.607483,0.572206 -0.878769,0.889 1.315508,1.321506 2.264833,3.338336 2.584097,5.673725 h 1.265414 c -0.255059,-2.057753 -0.96132,-3.958167 -2.051403,-5.4737 -0.287514,-0.399697 -0.595136,-0.762706 -0.919339,-1.089025"
             style="fill:#33b6b4;fill-opacity:1;fill-rule:nonzero;stroke:none;stroke-width:0.352778"
             id="path50-2" /><path
             d="m 76.056068,45.723169 c -0.243064,0.369358 -0.458964,0.758119 -0.644878,1.163814 0.753181,0.939094 1.307395,2.198158 1.559984,3.628319 h 1.27 c -0.239889,-1.5367 -0.793398,-2.952044 -1.61925,-4.097866 -0.179564,-0.248709 -0.368653,-0.480131 -0.565856,-0.694267"
             style="fill:#33b6b4;fill-opacity:1;fill-rule:nonzero;stroke:none;stroke-width:0.352778"
             id="path54-1" /><path
             d="m 74.623437,50.515302 h 1.273881 c -0.183445,-0.871008 -0.503062,-1.681692 -0.944387,-2.383367 -0.214488,0.757414 -0.329494,1.557161 -0.329494,2.383367"
             style="fill:#33b6b4;fill-opacity:1;fill-rule:nonzero;stroke:none;stroke-width:0.352778"
             id="path58-6" /><path
             d="m 88.448445,43.434346 c -0.1651,-0.119239 -0.334433,-0.232481 -0.508,-0.340078 -0.07902,0.08255 -0.157339,0.165806 -0.234244,0.251178 -1.014237,1.126067 -2.162881,2.849739 -2.771423,5.274733 -0.186266,-0.978253 -0.44838,-1.923697 -0.781755,-2.822222 0.660047,-1.477786 1.480608,-2.62008 2.236258,-3.464278 -0.203553,-0.07549 -0.410633,-0.143933 -0.621241,-0.204964 -0.648759,0.754239 -1.331031,1.716264 -1.92017,2.905478 -0.424744,-0.987072 -0.9398,-1.908528 -1.539522,-2.744611 -0.09772,-0.136525 -0.197556,-0.268817 -0.29845,-0.398992 -0.463903,0.07161 -0.915458,0.179917 -1.352197,0.321734 1.047044,1.211791 1.901119,2.747786 2.486377,4.498975 -0.215194,0.618066 -0.401813,1.280936 -0.547863,1.993547 -0.412045,-1.8796 -1.153231,-3.604683 -2.183342,-5.039431 -0.263525,-0.366888 -0.541161,-0.708377 -0.831497,-1.023408 -0.389114,0.18662 -0.762353,0.401108 -1.116895,0.640997 1.654881,1.675695 2.827514,4.257322 3.159125,7.232297 h 1.31057 c 0.09772,-1.008238 0.277636,-1.932163 0.516114,-2.774597 0.231069,0.883356 0.396169,1.812572 0.486833,2.774597 h 1.266119 c 0.374298,-3.254022 1.759656,-5.444772 2.950281,-6.766983 0.09772,-0.108655 0.196144,-0.212725 0.294922,-0.313972"
             style="fill:#33b6b4;fill-opacity:1;fill-rule:nonzero;stroke:none;stroke-width:0.352778"
             id="path62-8" /><path
             d="m 90.092391,44.977396 c -0.128764,-0.156633 -0.263172,-0.308681 -0.402519,-0.456142 -1.344437,1.377598 -2.468739,3.376084 -2.819753,5.993695 h 0.608189 c 0.359127,-2.541059 1.462616,-4.267553 2.416175,-5.325886 0.06562,-0.07267 0.131586,-0.142875 0.197908,-0.211667"
             style="fill:#33b6b4;fill-opacity:1;fill-rule:nonzero;stroke:none;stroke-width:0.352778"
             id="path66-3" /><path
             d="m 89.154002,50.515302 h 0.611011 c 0.287867,-1.575153 0.93592,-2.729442 1.567039,-3.525308 -0.08961,-0.2032 -0.186972,-0.402167 -0.291394,-0.596547 -0.875948,1.023761 -1.592087,2.39783 -1.886656,4.121855"
             style="fill:#33b6b4;fill-opacity:1;fill-rule:nonzero;stroke:none;stroke-width:0.352778"
             id="path70-1" /><path
             d="m 91.997391,49.104544 c -0.224014,0.42545 -0.408517,0.895703 -0.538339,1.410758 h 0.661106 c 0,-0.480483 -0.04269,-0.951441 -0.122767,-1.410758"
             style="fill:#33b6b4;fill-opacity:1;fill-rule:nonzero;stroke:none;stroke-width:0.352778"
             id="path74-9" /></g></g><g
         id="g6"
         transform="translate(-2.4957217,4.1688854)"><g
           id="g13"
           clip-path="url(#clipPath14)"
           transform="translate(-563.39457,-203.82961)"><g
             id="g2"
             transform="matrix(1.1732992,0.55795223,-0.77689827,0.73742007,719.85647,-211.8984)"
             clip-path="none"
             style="stroke-width:13.8704;stroke-dasharray:none"><rect
               width="300"
               height="422"
               x="106"
               y="82.5"
               fill="#676e87"
               rx="30"
               id="rect1-0"
               style="fill:#2e323d;fill-opacity:1;stroke-width:13.8704;stroke-dasharray:none" /><path
               fill="#595f74"
               d="m 376,82.5 h -45 a 29.99993,29.99993 0 0 1 30,30 v 362 a 29.99993,29.99993 0 0 1 -30,30 h 45 a 29.99993,29.99993 0 0 0 30,-30 v -362 a 29.99993,29.99993 0 0 0 -30,-30 z"
               id="path1-58"
               style="stroke-width:13.8704;stroke-dasharray:none" /><polygon
               fill="#eeeeee"
               points="344,127.5 168,127.5 168,7.5 188.17,17.5 211.99,7.5 233.99,17.5 255.99,7.5 277.99,17.5 299.99,7.5 322,17.5 344,7.5 "
               id="polygon1-3"
               style="stroke-width:13.8704;stroke-dasharray:none" /><path
               fill="#bebebe"
               d="m 299,96.5 h -86 a 7.5,7.5 0 0 1 0,-15 h 86 a 7.5,7.5 0 0 1 0,15 z"
               id="path2-7"
               style="stroke-width:13.8704;stroke-dasharray:none" /><path
               fill="#595f74"
               d="M 361,135 H 151 a 7.5,7.5 0 0 1 0,-15 h 210 a 7.5,7.5 0 0 1 0,15 z"
               id="path3-0-7"
               style="stroke-width:13.8704;stroke-dasharray:none" /><path
               fill="#bebebe"
               d="m 299,66.5 h -86 a 7.5,7.5 0 0 1 0,-15 h 86 a 7.5,7.5 0 0 1 0,15 z"
               id="path4-1"
               style="stroke-width:13.8704;stroke-dasharray:none" /><rect
               width="210"
               height="92"
               x="151"
               y="157.5"
               fill="#66c1ff"
               rx="4"
               id="rect4-3"
               style="fill:#ffffff;fill-opacity:1;stroke-width:13.8704;stroke-dasharray:none" /><path
               fill="#4eb7ff"
               d="m 357,157.5 h -45 a 3.99988,3.99988 0 0 1 4,4 v 84 a 4,4 0 0 1 -4,4 h 45 a 4,4 0 0 0 4,-4 v -84 a 3.99988,3.99988 0 0 0 -4,-4 z"
               id="path5-1"
               style="fill:#e9e9e9;fill-opacity:1;stroke-width:13.8704;stroke-dasharray:none" /><rect
               width="48.313"
               height="35"
               x="151.5"
               y="424.5"
               fill="#ffffff"
               rx="3"
               id="rect5-2"
               style="stroke-width:13.8704;stroke-dasharray:none" /><rect
               width="48.813"
               height="35"
               x="312.18799"
               y="424.5"
               fill="#63ea86"
               rx="3"
               id="rect6-9"
               style="stroke-width:13.8704;stroke-dasharray:none" /><path
               fill="#3ce568"
               d="m 358,424.5 h -15 a 3.00007,3.00007 0 0 1 3,3 v 29 a 3.00007,3.00007 0 0 1 -3,3 h 15 a 3.00007,3.00007 0 0 0 3,-3 v -29 a 3.00007,3.00007 0 0 0 -3,-3 z"
               id="path6-6"
               style="stroke-width:13.8704;stroke-dasharray:none" /><rect
               width="48.813"
               height="35"
               x="231.59399"
               y="424.5"
               fill="#ff6666"
               rx="3"
               id="rect7-6"
               style="stroke-width:13.8704;stroke-dasharray:none" /><path
               fill="#ff4e4e"
               d="m 277.40625,424.5 h -15 a 3.00007,3.00007 0 0 1 3,3 v 29 a 3.00007,3.00007 0 0 1 -3,3 h 15 a 3.00007,3.00007 0 0 0 3,-3 v -29 a 3.00007,3.00007 0 0 0 -3,-3 z"
               id="path7-1"
               style="stroke-width:13.8704;stroke-dasharray:none" /><rect
               width="48.313"
               height="35"
               x="151.5"
               y="359.5"
               fill="#ffffff"
               rx="3"
               id="rect8-5"
               style="stroke-width:13.8704;stroke-dasharray:none" /><rect
               width="48.813"
               height="35"
               x="312.18799"
               y="359.5"
               fill="#ffffff"
               rx="3"
               id="rect9-3"
               style="stroke-width:13.8704;stroke-dasharray:none" /><path
               fill="#eeeeee"
               d="m 358,359.5 h -15 a 3.00007,3.00007 0 0 1 3,3 v 29 a 3.00007,3.00007 0 0 1 -3,3 h 15 a 3.00007,3.00007 0 0 0 3,-3 v -29 a 3.00007,3.00007 0 0 0 -3,-3 z"
               id="path9-0"
               style="stroke-width:13.8704;stroke-dasharray:none" /><rect
               width="48.813"
               height="35"
               x="231.59399"
               y="359.5"
               fill="#ffffff"
               rx="3"
               id="rect10-6"
               style="stroke-width:13.8704;stroke-dasharray:none" /><rect
               width="48.313"
               height="35"
               x="151.5"
               y="294.5"
               fill="#ffffff"
               rx="3"
               id="rect11-7"
               style="stroke-width:13.8704;stroke-dasharray:none" /><rect
               width="48.813"
               height="35"
               x="312.18799"
               y="294.5"
               fill="#ffffff"
               rx="3"
               id="rect12-1"
               style="stroke-width:13.8704;stroke-dasharray:none" /><rect
               width="48.813"
               height="35"
               x="231.59399"
               y="294.5"
               fill="#ffffff"
               rx="3"
               id="rect13-2"
               style="stroke-width:13.8704;stroke-dasharray:none" /><path
               fill="#eeeeee"
               d="m 358,294.5 h -15 a 3.00007,3.00007 0 0 1 3,3 v 29 a 3.00007,3.00007 0 0 1 -3,3 h 15 a 3.00007,3.00007 0 0 0 3,-3 v -29 a 3.00007,3.00007 0 0 0 -3,-3 z m -80.59375,65 h -15 a 3.00007,3.00007 0 0 1 3,3 v 29 a 3.00007,3.00007 0 0 1 -3,3 h 15 a 3.00007,3.00007 0 0 0 3,-3 v -29 a 3.00007,3.00007 0 0 0 -3,-3 z m 0,-65 h -15 a 3.00007,3.00007 0 0 1 3,3 v 29 a 3.00007,3.00007 0 0 1 -3,3 h 15 a 3.00007,3.00007 0 0 0 3,-3 v -29 a 3.00007,3.00007 0 0 0 -3,-3 z m -80.59375,65 h -15 a 3.00007,3.00007 0 0 1 3,3 v 29 a 3.00007,3.00007 0 0 1 -3,3 h 15 a 3.00007,3.00007 0 0 0 3,-3 v -29 a 3.00007,3.00007 0 0 0 -3,-3 z m 0,65 h -15 a 3.00007,3.00007 0 0 1 3,3 v 29 a 3.00007,3.00007 0 0 1 -3,3 h 15 a 3.00007,3.00007 0 0 0 3,-3 v -29 a 3.00007,3.00007 0 0 0 -3,-3 z m 0,-130 h -15 a 3.00007,3.00007 0 0 1 3,3 v 29 a 3.00007,3.00007 0 0 1 -3,3 h 15 a 3.00007,3.00007 0 0 0 3,-3 v -29 a 3.00007,3.00007 0 0 0 -3,-3 z"
               id="path13-8"
               style="stroke-width:13.8704;stroke-dasharray:none" /></g><g
             id="layer1-7"
             transform="matrix(7.2692552,3.3897094,-3.3897093,7.2692552,400.91409,-541.81186)"
             style="stroke-width:16.3907;stroke-dasharray:none"><path
               d="m 77.59806,43.952577 c -0.313619,0.275167 -0.607483,0.572206 -0.878769,0.889 1.315508,1.321506 2.264833,3.338336 2.584097,5.673725 h 1.265414 c -0.255059,-2.057753 -0.96132,-3.958167 -2.051403,-5.4737 -0.287514,-0.399697 -0.595136,-0.762706 -0.919339,-1.089025"
               style="fill:#33b6b4;fill-opacity:1;fill-rule:nonzero;stroke:none;stroke-width:0.352778"
               id="path50" /><path
               d="m 76.056068,45.723169 c -0.243064,0.369358 -0.458964,0.758119 -0.644878,1.163814 0.753181,0.939094 1.307395,2.198158 1.559984,3.628319 h 1.27 c -0.239889,-1.5367 -0.793398,-2.952044 -1.61925,-4.097866 -0.179564,-0.248709 -0.368653,-0.480131 -0.565856,-0.694267"
               style="fill:#33b6b4;fill-opacity:1;fill-rule:nonzero;stroke:none;stroke-width:0.352778"
               id="path54" /><path
               d="m 74.623437,50.515302 h 1.273881 c -0.183445,-0.871008 -0.503062,-1.681692 -0.944387,-2.383367 -0.214488,0.757414 -0.329494,1.557161 -0.329494,2.383367"
               style="fill:#33b6b4;fill-opacity:1;fill-rule:nonzero;stroke:none;stroke-width:0.352778"
               id="path58" /><path
               d="m 88.448445,43.434346 c -0.1651,-0.119239 -0.334433,-0.232481 -0.508,-0.340078 -0.07902,0.08255 -0.157339,0.165806 -0.234244,0.251178 -1.014237,1.126067 -2.162881,2.849739 -2.771423,5.274733 -0.186266,-0.978253 -0.44838,-1.923697 -0.781755,-2.822222 0.660047,-1.477786 1.480608,-2.62008 2.236258,-3.464278 -0.203553,-0.07549 -0.410633,-0.143933 -0.621241,-0.204964 -0.648759,0.754239 -1.331031,1.716264 -1.92017,2.905478 -0.424744,-0.987072 -0.9398,-1.908528 -1.539522,-2.744611 -0.09772,-0.136525 -0.197556,-0.268817 -0.29845,-0.398992 -0.463903,0.07161 -0.915458,0.179917 -1.352197,0.321734 1.047044,1.211791 1.901119,2.747786 2.486377,4.498975 -0.215194,0.618066 -0.401813,1.280936 -0.547863,1.993547 -0.412045,-1.8796 -1.153231,-3.604683 -2.183342,-5.039431 -0.263525,-0.366888 -0.541161,-0.708377 -0.831497,-1.023408 -0.389114,0.18662 -0.762353,0.401108 -1.116895,0.640997 1.654881,1.675695 2.827514,4.257322 3.159125,7.232297 h 1.31057 c 0.09772,-1.008238 0.277636,-1.932163 0.516114,-2.774597 0.231069,0.883356 0.396169,1.812572 0.486833,2.774597 h 1.266119 c 0.374298,-3.254022 1.759656,-5.444772 2.950281,-6.766983 0.09772,-0.108655 0.196144,-0.212725 0.294922,-0.313972"
               style="fill:#33b6b4;fill-opacity:1;fill-rule:nonzero;stroke:none;stroke-width:0.352778"
               id="path62" /><path
               d="m 90.092391,44.977396 c -0.128764,-0.156633 -0.263172,-0.308681 -0.402519,-0.456142 -1.344437,1.377598 -2.468739,3.376084 -2.819753,5.993695 h 0.608189 c 0.359127,-2.541059 1.462616,-4.267553 2.416175,-5.325886 0.06562,-0.07267 0.131586,-0.142875 0.197908,-0.211667"
               style="fill:#33b6b4;fill-opacity:1;fill-rule:nonzero;stroke:none;stroke-width:0.352778"
               id="path66" /><path
               d="m 89.154002,50.515302 h 0.611011 c 0.287867,-1.575153 0.93592,-2.729442 1.567039,-3.525308 -0.08961,-0.2032 -0.186972,-0.402167 -0.291394,-0.596547 -0.875948,1.023761 -1.592087,2.39783 -1.886656,4.121855"
               style="fill:#33b6b4;fill-opacity:1;fill-rule:nonzero;stroke:none;stroke-width:0.352778"
               id="path70" /><path
               d="m 91.997391,49.104544 c -0.224014,0.42545 -0.408517,0.895703 -0.538339,1.410758 h 0.661106 c 0,-0.480483 -0.04269,-0.951441 -0.122767,-1.410758"
               style="fill:#33b6b4;fill-opacity:1;fill-rule:nonzero;stroke:none;stroke-width:0.352778"
               id="path74" /></g></g><g
           id="g3"
           style="stroke-width:22;stroke-dasharray:none"
           transform="translate(1.7555407,-4.7047332)"><g
             id="g9"
             style="stroke-width:21.8542;stroke-dasharray:none"
             transform="matrix(1.3356742,0,0,1.2035722,23.279664,-45.935163)"><path
               fill="#3d5757"
               d="M 71.214099,-45.446318 25.660511,13.985437 c -12.583659,16.409232 -39.881662,18.853694 -56.258979,5.026817 -16.377318,-13.8268774 -13.481963,-36.88003 5.954037,-47.497769 L 45.74982,-66.945044 Z"
               id="path1-5"
               style="fill:#9e9f8f;fill-opacity:1;stroke:none;stroke-width:21.8542;stroke-dasharray:none;stroke-opacity:1" /></g><path
             d="M 18.936549,-0.27605133 A 64.360511,48.346397 0 0 1 -26.734211,-14.52225 64.455813,48.417984 0 0 1 -45.32866,-54.01548 64.445225,48.41003 0 0 1 -16.134531,-89.714496 L 84.281843,-138.52223 a 12.833981,9.6406435 0 0 1 16.053067,1.28064 l 36.31,27.27537 c 4.27799,3.21355 4.98747,8.24069 1.70485,12.058766 L 73.37508,-22.484532 A 64.434633,48.402076 0 0 1 25.851228,-0.55445288 63.449849,47.662323 0 0 1 18.936549,-0.27605133 Z M 89.502266,-118.09553 -2.1992829,-73.527442 a 38.861975,29.192377 0 0 0 -17.6096611,21.540315 38.851384,29.184423 0 0 0 11.2244391,23.831161 38.883151,29.208287 0 0 0 31.7249249,8.431587 38.872562,29.200332 0 0 0 28.675264,-13.236 l 59.330696,-68.884471 z"
             id="path17"
             style="stroke:#000000;stroke-width:10;stroke-dasharray:none;stroke-opacity:1" /><path
             fill="#ececf1"
             d="m 354.32261,-290.28531 c 65.11783,46.8919 65.11784,122.92591 10e-6,169.81781 -65.11784,46.891904 -170.7047,46.891905 -235.82253,0 -65.117835,-46.8919 -65.117838,-122.92591 -1e-5,-169.81781 65.11784,-46.89191 170.7047,-46.89774 235.82253,0 z"
             id="path3"
             style="fill:none;stroke:#000000;stroke-width:40;stroke-dasharray:none;stroke-opacity:1" /></g></g></g></g></svg>
